<?xml version="1.0" encoding="UTF-8" standalone="no"?>
<!-- Created with Inkscape (http://www.inkscape.org/) -->

<svg
   xmlns:dc="http://purl.org/dc/elements/1.1/"
   xmlns:cc="http://creativecommons.org/ns#"
   xmlns:rdf="http://www.w3.org/1999/02/22-rdf-syntax-ns#"
   xmlns:svg="http://www.w3.org/2000/svg"
   xmlns="http://www.w3.org/2000/svg"
   xmlns:sodipodi="http://sodipodi.sourceforge.net/DTD/sodipodi-0.dtd"
   xmlns:inkscape="http://www.inkscape.org/namespaces/inkscape"
   id="svg4155"
   version="1.1"
   inkscape:version="0.91 r13725"
   xml:space="preserve"
   width="453.53751"
   height="340.16251"
   viewBox="0 0 453.53751 340.16251"
   sodipodi:docname="demo.pdf"><metadata
     id="metadata4161"><rdf:RDF><cc:Work
         rdf:about=""><dc:format>image/svg+xml</dc:format><dc:type
           rdf:resource="http://purl.org/dc/dcmitype/StillImage" /></cc:Work></rdf:RDF></metadata><defs
     id="defs4159" /><sodipodi:namedview
     pagecolor="#ffffff"
     bordercolor="#666666"
     borderopacity="1"
     objecttolerance="10"
     gridtolerance="10"
     guidetolerance="10"
     inkscape:pageopacity="0"
     inkscape:pageshadow="2"
     inkscape:window-width="640"
     inkscape:window-height="480"
     id="namedview4157"
     showgrid="false" /><g
     id="g4163"
     inkscape:groupmode="layer"
     inkscape:label="demo"
     transform="matrix(1.25,0,0,-1.25,0,340.1625)"><g
       id="g4167"
       transform="translate(72,200.126)"><path
         inkscape:connector-curvature="0"
         id="path4169"
         style="fill:#fafafa;fill-opacity:1;fill-rule:nonzero;stroke:none"
         d="m -72,-200.126 362.835,0 0,272.126 -362.835,0 0,-272.126 z" /></g><g
       id="g4171"
       transform="translate(72,200.126)"><path
         inkscape:connector-curvature="0"
         id="path4173"
         style="fill:none;stroke:#343434;stroke-width:1.99249995;stroke-linecap:butt;stroke-linejoin:miter;stroke-miterlimit:10;stroke-dasharray:none;stroke-opacity:1"
         d="m -62.268,59.117 9.962,0" /></g><text
       id="text4175"
       style="font-variant:normal;font-weight:600;font-size:11.9552002px;font-family:'Source Sans Pro';-inkscape-font-specification:SourceSansPro-Semibold;writing-mode:lr-tb;fill:#343434;fill-opacity:1;fill-rule:nonzero;stroke:none"
       transform="scale(1,-1)"
       x="24.077999"
       y="-256.13"><tspan
         id="tspan4177"
         sodipodi:role="line"
         y="-256.13"
         x="24.077999 32.040161 37.80257 43.541065 50.044693 57.265633 63.685577 70.906517 76.358093 79.753365">METROPOLIS</tspan></text>
<g
       id="g4179"
       transform="translate(72,200.126)"><path
         inkscape:connector-curvature="0"
         id="path4181"
         style="fill:none;stroke:#343434;stroke-width:1.99249995;stroke-linecap:butt;stroke-linejoin:miter;stroke-miterlimit:10;stroke-dasharray:none;stroke-opacity:1"
         d="m 18.393,59.117 262.71,0" /></g><text
       id="text4183"
       style="font-variant:normal;font-weight:normal;font-size:9.96259975px;font-family:'Source Sans Pro';-inkscape-font-specification:SourceSansPro-Regular;writing-mode:lr-tb;fill:#343434;fill-opacity:1;fill-rule:nonzero;stroke:none"
       transform="scale(1,-1)"
       x="28.346001"
       y="-186.33"><tspan
         id="tspan4185"
         sodipodi:role="line"
         y="-186.33"
         x="28.346001 33.685955 39.10561">The</tspan></text>
<text
       id="text4187"
       style="font-variant:normal;font-weight:600;font-size:9.96259975px;font-family:'Source Sans Pro';-inkscape-font-specification:SourceSansPro-Semibold;writing-mode:lr-tb;fill:#343434;fill-opacity:1;fill-rule:nonzero;stroke:none"
       transform="scale(1,-1)"
       x="46.040001"
       y="-186.33"><tspan
         id="tspan4189"
         sodipodi:role="line"
         y="-186.33"
         x="46.040001 52.675091 57.487026 62.269073 67.688728 73.706139 79.056053 85.073463 89.616409 92.445793">METROPOLIS</tspan></text>
<text
       id="text4191"
       style="font-variant:normal;font-weight:normal;font-size:9.96259975px;font-family:'Source Sans Pro';-inkscape-font-specification:SourceSansPro-Regular;writing-mode:lr-tb;fill:#343434;fill-opacity:1;fill-rule:nonzero;stroke:none"
       transform="scale(1,-1)"
       x="99.309998"
       y="-186.33"><tspan
         id="tspan4193"
         sodipodi:role="line"
         y="-186.33"
         x="99.309998 102.68732 108.10698 113.04842 121.30742 128.24139 130.70215 136.869 143.88268 149.74068 154.55261 159.57376 167.83276 172.77422 178.22375 181.60107 187.02074 191.96219 200.22118 207.15515 214.30829 216.76906 220.14638 227.55855 235.81754 238.27831 243.72784 246.18861 254.4476 259.46875 264.00174 268.66425 271.125 275.29935 280.71899 285.74014 290.27313 295.72266 301.12241 303.58316 307.75748">themeisaBeamerthemewithminimalvisualnoise</tspan><tspan
         id="tspan4195"
         sodipodi:role="line"
         y="-172.582"
         x="28.346003 30.806765 36.256306 40.430634 45.959877 48.420639 51.797962 56.73941 64.251213 69.740601 76.385658 79.762978 85.182632">inspiredbythe</tspan></text>
<text
       id="text4197"
       style="font-variant:normal;font-weight:normal;font-size:9.96259975px;font-family:'Source Sans Pro';-inkscape-font-specification:SourceSansPro-Regular;writing-mode:lr-tb;fill:#343434;fill-opacity:1;fill-rule:nonzero;stroke:none"
       transform="scale(1,-1)"
       x="92.116997"
       y="-172.582"><tspan
         id="tspan4199"
         sodipodi:role="line"
         y="-172.582"
         x="92.116997 98.034782 102.75706 107.9675">HSRM</tspan></text>
<text
       id="text4201"
       style="font-variant:normal;font-weight:normal;font-size:9.96259975px;font-family:'Source Sans Pro';-inkscape-font-specification:SourceSansPro-Regular;writing-mode:lr-tb;fill:#343434;fill-opacity:1;fill-rule:nonzero;stroke:none"
       transform="scale(1,-1)"
       x="116.396"
       y="-172.582"><tspan
         id="tspan4203"
         sodipodi:role="line"
         y="-172.582"
         x="116.396 122.25401 127.06595 132.0871 140.34608 145.28754 150.73709 156.07704 161.49669 166.43814 174.69714">BeamerTheme</tspan></text>
<text
       id="text4205"
       style="font-variant:normal;font-weight:normal;font-size:9.96259975px;font-family:'Source Sans Pro';-inkscape-font-specification:SourceSansPro-Regular;writing-mode:lr-tb;fill:#343434;fill-opacity:1;fill-rule:nonzero;stroke:none"
       transform="scale(1,-1)"
       x="181.632"
       y="-172.582"><tspan
         id="tspan4207"
         sodipodi:role="line"
         y="-172.582"
         x="181.632 187.11143 193.75648 199.61449 204.55594 210.00549 212.46625 217.4874 225.7464 228.20715 235.64922 243.47983 248.42126 250.88203 255.05637 259.23068">byBenjaminWeiss.</tspan><tspan
         id="tspan4209"
         sodipodi:role="line"
         y="-153.85201"
         x="28.346004 33.596294 39.045834 44.066982 49.586269 52.12672 59.060703 62.438023 67.857674 74.791641 78.168961 83.588623 88.530067 96.789062 103.72304 109.21243 115.85748 118.39794 123.66816 128.68932 134.21855 136.67932 142.12886">Enablethethemebyloading</tspan></text>
<text
       id="text4211"
       style="font-variant:normal;font-size:9.96259975px;font-family:'Fira Mono';-inkscape-font-specification:FiraMono-Regular-Identity-H;writing-mode:lr-tb;fill:#343434;fill-opacity:1;fill-rule:nonzero;stroke:none"
       transform="scale(1,-1)"
       x="52.257"
       y="-125.16"><tspan
         id="tspan4213"
         sodipodi:role="line"
         y="-125.16"
         x="52.257 58.234562 64.21212 70.189682 76.167244 82.144798 88.12236 94.099922 100.07748 106.05504 112.0326 118.01016 123.98772 129.96529 135.94284 141.92039 147.89796 153.87552 159.85307 165.83064 171.8082 177.78577">\documentclass{beamer}</tspan><tspan
         id="tspan4215"
         sodipodi:role="line"
         y="-111.411"
         x="52.257 58.234562 64.21212 70.189682 76.167244 82.144798 88.12236 94.099922 100.07748 106.05504 112.0326 118.01016 123.98772 129.96529 135.94284 141.92039 147.89796 153.87552 159.85307 165.83064 171.8082">\usetheme{metropolis}</tspan></text>
<text
       id="text4217"
       style="font-variant:normal;font-weight:normal;font-size:9.96259975px;font-family:'Source Sans Pro';-inkscape-font-specification:SourceSansPro-Regular;writing-mode:lr-tb;fill:#343434;fill-opacity:1;fill-rule:nonzero;stroke:none"
       transform="scale(1,-1)"
       x="28.346001"
       y="-82.719002"><tspan
         id="tspan4219"
         sodipodi:role="line"
         y="-82.719002"
         x="28.346001 34.781841 40.022167 43.260014 48.201462 52.674667 56.051991 61.471645 66.363281 71.72316 76.355766 81.755501 89.157707 94.577362 99.598518 104.23112 111.15513 114.40294 121.78522 127.20488 132.22603 136.85864 143.78265 151.02545 156.37537 160.60947 163.07024 165.6107 168.15115 173.01291 175.0154">Note,thatyouhavetohaveMozillaʼs</tspan></text>
<text
       id="text4221"
       style="font-style:italic;font-variant:normal;font-size:9.96259975px;font-family:'Source Sans Pro';-inkscape-font-specification:SourceSansPro-It;writing-mode:lr-tb;fill:#343434;fill-opacity:1;fill-rule:nonzero;stroke:none"
       transform="scale(1,-1)"
       x="181.173"
       y="-82.719002"><tspan
         id="tspan4223"
         sodipodi:role="line"
         y="-82.719002"
         x="181.173 185.88531 188.24644 191.564 198.89647 203.94751 209.29742 214.53775">FiraSans</tspan></text>
<text
       id="text4225"
       style="font-variant:normal;font-weight:normal;font-size:9.96259975px;font-family:'Source Sans Pro';-inkscape-font-specification:SourceSansPro-Regular;writing-mode:lr-tb;fill:#343434;fill-opacity:1;fill-rule:nonzero;stroke:none"
       transform="scale(1,-1)"
       x="220.536"
       y="-82.719002"><tspan
         id="tspan4227"
         sodipodi:role="line"
         y="-82.719002"
         x="220.536 223.34546 228.74518 234.19472 239.55461 244.57576 250.0253 257.54706 262.60806 267.31039 271.99283 276.93427 284.03763 286.49838 291.94791 295.93295 299.10107 304.12222 306.66269 309.20312 314.14459 321.6564 324.90417">fontandXeTeXinstalledto</tspan><tspan
         id="tspan4229"
         sodipodi:role="line"
         y="-68.971001"
         x="28.345997 33.287449 38.736988 41.197758 46.5676 53.21265 56.58997 62.009632 64.47039 70.637245 77.760506 83.160225 88.609764 94.139015 99.08046 102.54744 105.45652 110.87618 115.3992 118.77652 123.43902 128.96826 134.36798 139.39911 142.63695 147.6581 153.18735 158.60699 162.92081">enjoythiswonderfultypography.</tspan></text>
<g
       id="g4231"
       transform="translate(72,200.126)"><path
         inkscape:connector-curvature="0"
         id="path4233"
         style="fill:none;stroke:#d7c6c8;stroke-width:1.49440002;stroke-linecap:butt;stroke-linejoin:miter;stroke-miterlimit:10;stroke-dasharray:none;stroke-opacity:1"
         d="m -72,-199.379 362.835,0" /></g><g
       id="g4235"><g
         id="g4237"><g
           id="g4239"><g
             id="g4241"><path
               inkscape:connector-curvature="0"
               id="path4243"
               style="fill:#d7c6c8;fill-opacity:1;fill-rule:nonzero;stroke:none"
               d="m 0,0 0,1.49442 362.8394,0 L 362.8394,0 0,0 Z" /></g><g
             id="g4245"><path
               inkscape:connector-curvature="0"
               id="path4247"
               style="fill:#f1828d;fill-opacity:1;fill-rule:nonzero;stroke:none"
               d="m 0,0 0,1.49442 34.55876,0 L 34.55876,0 0,0 Z" /></g></g></g></g></g></svg>